<svg width="167" height="55" viewBox="0 0 167 55" fill="none" xmlns="http://www.w3.org/2000/svg">
<path d="M16.8984 31.8609C16.8984 34.5371 17.9607 37.1036 19.8516 38.996C21.7426 40.8883 24.3072 41.9514 26.9813 41.9514C29.6555 41.9514 32.2201 40.8883 34.111 38.996C36.0019 37.1036 37.0642 34.5371 37.0642 31.8609C37.0642 28.0444 31.4368 20.2577 26.9813 15.0938C22.5259 20.26 16.8984 28.0444 16.8984 31.8609Z" fill="#373A3F"/>
<path d="M27.4302 0.000112085C22.3728 -0.0143813 17.4108 1.37695 13.0972 4.01902C8.78355 6.6611 5.28784 10.4501 2.99969 14.9637C2.97876 15.0149 2.97178 15.0707 2.9462 15.1196C1.00909 18.9636 0 23.2088 0 27.514C0 31.8192 1.00909 36.0644 2.9462 39.9084C2.97178 39.9596 2.98108 40.0155 3.00201 40.069C5.23295 44.4138 8.58004 48.0854 12.6991 50.7064C16.8181 53.3273 21.5604 54.803 26.4383 54.9816C31.3161 55.1602 36.1535 54.0353 40.4529 51.7226C44.7523 49.4099 48.3586 45.9929 50.9008 41.8229C53.4431 37.6529 54.8296 32.8805 54.9177 27.9965C55.0058 23.1125 53.7924 18.2931 51.4022 14.034C49.012 9.77489 45.5314 6.22979 41.3182 3.76327C37.105 1.29675 32.3114 -0.00216272 27.4302 0.000112085ZM26.9814 46.1801C23.0751 46.1758 19.3301 44.6209 16.5679 41.8567C13.8057 39.0924 12.2521 35.3445 12.2478 31.4353C12.2478 23.8813 23.9421 11.0331 25.2699 9.59263C25.4931 9.36698 25.7587 9.18785 26.0515 9.0656C26.3443 8.94335 26.6584 8.8804 26.9756 8.8804C27.2928 8.8804 27.6069 8.94335 27.8997 9.0656C28.1925 9.18785 28.4581 9.36698 28.6813 9.59263C30.0137 11.0331 41.7035 23.8813 41.7035 31.4353C41.6992 35.3425 40.1471 39.0886 37.3874 41.8526C34.6278 44.6165 30.8857 46.1727 26.9814 46.1801Z" fill="url(#paint0_linear_1_1774)"/>
<path d="M166.458 37.9684H159.261L154.772 30.7656L150.331 37.9684H143.291L150.929 26.1791L143.748 14.9258H150.646L154.804 22.0498L158.804 14.9258H165.907L158.615 26.6677L166.458 37.9684Z" fill="url(#paint1_linear_1_1774)"/>
<path d="M130.659 20.0166C132.287 20.0166 133.688 20.3318 134.864 20.9623C136.04 21.5822 136.949 22.4858 137.589 23.6732C138.229 24.8605 138.55 26.3105 138.55 28.0232V30.3558H127.195C127.247 31.7113 127.651 32.7778 128.407 33.5553C129.174 34.3223 130.234 34.7059 131.589 34.7059C132.712 34.7059 133.741 34.5903 134.675 34.3591C135.61 34.128 136.571 33.7812 137.557 33.3189V37.0385C136.686 37.4693 135.773 37.7845 134.817 37.9841C133.872 38.1838 132.723 38.2836 131.368 38.2836C129.604 38.2836 128.04 37.9579 126.675 37.3064C125.32 36.655 124.255 35.662 123.478 34.3276C122.711 32.9932 122.328 31.312 122.328 29.2841C122.328 27.2246 122.675 25.5119 123.368 24.146C124.071 22.7695 125.047 21.7398 126.297 21.0568C127.546 20.3633 129 20.0166 130.659 20.0166ZM130.691 23.4367C129.756 23.4367 128.979 23.7362 128.36 24.3351C127.751 24.934 127.399 25.8744 127.305 27.1563H134.045C134.035 26.4418 133.904 25.8061 133.652 25.2493C133.41 24.6924 133.043 24.2511 132.549 23.9253C132.066 23.5996 131.447 23.4367 130.691 23.4367Z" fill="#373A3F"/>
<path d="M112.784 20.0171C114.769 20.0171 116.37 20.7894 117.588 22.334C118.816 23.8785 119.43 26.1429 119.43 29.127C119.43 31.1233 119.142 32.8045 118.564 34.1705C117.987 35.5259 117.189 36.5504 116.17 37.2439C115.152 37.9374 113.981 38.2841 112.658 38.2841C111.808 38.2841 111.078 38.179 110.469 37.9689C109.86 37.7482 109.34 37.4698 108.91 37.1335C108.479 36.7868 108.107 36.419 107.792 36.0303H107.54C107.624 36.4506 107.687 36.8814 107.729 37.3227C107.771 37.764 107.792 38.1948 107.792 38.6151V45.7233H102.988V20.3481H106.894L107.571 22.6334H107.792C108.107 22.1606 108.49 21.7245 108.941 21.3253C109.393 20.926 109.934 20.6108 110.564 20.3796C111.204 20.1379 111.944 20.0171 112.784 20.0171ZM111.241 23.8628C110.401 23.8628 109.734 24.0361 109.241 24.3829C108.747 24.7296 108.385 25.2497 108.154 25.9432C107.933 26.6367 107.813 27.5141 107.792 28.5753V29.0954C107.792 30.2302 107.897 31.1916 108.107 31.9797C108.327 32.7677 108.689 33.3667 109.193 33.7764C109.708 34.1862 110.411 34.3911 111.304 34.3911C112.039 34.3911 112.642 34.1862 113.115 33.7764C113.587 33.3667 113.939 32.7677 114.17 31.9797C114.412 31.1811 114.532 30.2092 114.532 29.0639C114.532 27.3407 114.265 26.043 113.729 25.1709C113.194 24.2988 112.364 23.8628 111.241 23.8628Z" fill="#373A3F"/>
<path d="M97.9322 20.3477V37.9685H93.1287V20.3477H97.9322ZM95.5384 13.4443C96.2523 13.4443 96.8665 13.6125 97.381 13.9487C97.8955 14.2744 98.1527 14.8891 98.1527 15.7927C98.1527 16.6858 97.8955 17.3058 97.381 17.6525C96.8665 17.9888 96.2523 18.1569 95.5384 18.1569C94.8139 18.1569 94.1944 17.9888 93.68 17.6525C93.176 17.3058 92.924 16.6858 92.924 15.7927C92.924 14.8891 93.176 14.2744 93.68 13.9487C94.1944 13.6125 94.8139 13.4443 95.5384 13.4443Z" fill="#373A3F"/>
<path d="M80.6087 14.9258C83.58 14.9258 85.7481 15.5667 87.113 16.8486C88.4779 18.12 89.1604 19.8747 89.1604 22.1128C89.1604 23.1215 89.0082 24.0882 88.7037 25.0128C88.3992 25.927 87.9005 26.7413 87.2075 27.4558C86.5251 28.1703 85.6116 28.7377 84.4672 29.158C83.3228 29.5678 81.9106 29.7726 80.2307 29.7726H78.1361V37.9684H73.2538V14.9258H80.6087ZM80.3567 18.9291H78.1361V25.7694H79.7425C80.6559 25.7694 81.4486 25.6485 82.1206 25.4068C82.7925 25.1652 83.3123 24.7869 83.6797 24.2721C84.0472 23.7572 84.2309 23.0952 84.2309 22.2862C84.2309 21.1514 83.916 20.3108 83.286 19.7644C82.656 19.2075 81.6796 18.9291 80.3567 18.9291Z" fill="#373A3F"/>
<defs>
<linearGradient id="paint0_linear_1_1774" x1="0" y1="55" x2="54.9222" y2="55" gradientUnits="userSpaceOnUse">
<stop stop-color="#0D57D7"/>
<stop offset="1" stop-color="#4D8EFF"/>
</linearGradient>
<linearGradient id="paint1_linear_1_1774" x1="143.291" y1="37.9684" x2="166.458" y2="37.9684" gradientUnits="userSpaceOnUse">
<stop stop-color="#0D57D7"/>
<stop offset="1" stop-color="#4D8EFF"/>
</linearGradient>
</defs>
</svg>
