<svg width="55" height="55" viewBox="0 0 55 55" fill="none" xmlns="http://www.w3.org/2000/svg">
<path d="M16.8984 31.8609C16.8984 34.5371 17.9607 37.1036 19.8516 38.996C21.7426 40.8883 24.3072 41.9514 26.9813 41.9514C29.6555 41.9514 32.2201 40.8883 34.111 38.996C36.0019 37.1036 37.0642 34.5371 37.0642 31.8609C37.0642 28.0444 31.4368 20.2577 26.9813 15.0938C22.5259 20.26 16.8984 28.0444 16.8984 31.8609Z" fill="#373A3F"/>
<path d="M27.4302 0.000112085C22.3728 -0.0143813 17.4108 1.37695 13.0972 4.01902C8.78355 6.6611 5.28784 10.4501 2.99969 14.9637C2.97876 15.0149 2.97178 15.0707 2.9462 15.1196C1.00909 18.9636 0 23.2088 0 27.514C0 31.8192 1.00909 36.0644 2.9462 39.9084C2.97178 39.9596 2.98108 40.0155 3.00201 40.069C5.23295 44.4138 8.58004 48.0854 12.6991 50.7064C16.8181 53.3273 21.5604 54.803 26.4383 54.9816C31.3161 55.1602 36.1535 54.0353 40.4529 51.7226C44.7523 49.4099 48.3586 45.9929 50.9008 41.8229C53.4431 37.6529 54.8296 32.8805 54.9177 27.9965C55.0058 23.1125 53.7924 18.2931 51.4022 14.034C49.012 9.77489 45.5314 6.22979 41.3182 3.76327C37.105 1.29675 32.3114 -0.00216272 27.4302 0.000112085ZM26.9814 46.1801C23.0751 46.1758 19.3301 44.6209 16.5679 41.8567C13.8057 39.0924 12.2521 35.3445 12.2478 31.4353C12.2478 23.8813 23.9421 11.0331 25.2699 9.59263C25.4931 9.36698 25.7587 9.18785 26.0515 9.0656C26.3443 8.94335 26.6584 8.8804 26.9756 8.8804C27.2928 8.8804 27.6069 8.94335 27.8997 9.0656C28.1925 9.18785 28.4581 9.36698 28.6813 9.59263C30.0137 11.0331 41.7035 23.8813 41.7035 31.4353C41.6992 35.3425 40.1471 39.0886 37.3874 41.8526C34.6278 44.6165 30.8857 46.1727 26.9814 46.1801Z" fill="url(#paint0_linear_1_1775)"/>
<defs>
<linearGradient id="paint0_linear_1_1775" x1="0" y1="55" x2="54.9222" y2="55" gradientUnits="userSpaceOnUse">
<stop stop-color="#0D57D7"/>
<stop offset="1" stop-color="#4D8EFF"/>
</linearGradient>
</defs>
</svg>
